<?xml version="1.0" encoding="UTF-8"?>
<svg id="Livello_2" data-name="Livello 2" xmlns="http://www.w3.org/2000/svg" viewBox="0 0 266.83 242.39">
  <defs>
    <style>
      .cls-1 {
        stroke-linecap: round;
        stroke-linejoin: round;
      }

      .cls-1, .cls-2 {
        fill: none;
        stroke: #000;
        stroke-width: 11.87px;
      }

      .cls-3 {
        fill: #fff;
      }

      .cls-4 {
        fill: #81aee0;
      }

      .cls-5 {
        fill: #204072;
      }

      .cls-2 {
        stroke-miterlimit: 10;
      }
    </style>
  </defs>
  <g id="Livello_1-2" data-name="Livello 1">
    <g>
      <circle class="cls-2" cx="117.65" cy="117.65" r="111.71"/>
      <line class="cls-1" x1="117.65" y1="117.65" x2="117.65" y2="35.67"/>
      <line class="cls-1" x1="117.65" y1="119.58" x2="60.84" y2="119.58"/>
      <rect class="cls-5" x="46.26" y="149.04" width="219.89" height="83.54" rx="41.77" ry="41.77" transform="translate(-25.8 24.43) rotate(-8.26)"/>
      <g>
        <path class="cls-3" d="M135.37,211.39l1.21,8.33-34.73,5.04-.8-5.51,15.87-22.27c1.11-1.6,2-3.02,2.67-4.25.66-1.22,1.11-2.37,1.34-3.43.23-1.07.27-2.12.12-3.16-.3-2.07-1.21-3.59-2.72-4.57-1.51-.99-3.33-1.32-5.44-1.02s-4,1.16-5.51,2.53c-1.51,1.37-2.82,3.39-3.92,6.05l-7.37-4.63c1.48-3.63,3.58-6.52,6.27-8.66,2.69-2.15,5.95-3.5,9.76-4.05,3.24-.47,6.18-.24,8.78.67,2.61.92,4.74,2.42,6.38,4.48,1.65,2.07,2.69,4.61,3.13,7.62.29,2.02.31,3.9.06,5.61-.26,1.72-.84,3.48-1.76,5.27-.92,1.79-2.24,3.84-3.97,6.16l-9.25,12.66,19.89-2.89Z"/>
        <polygon class="cls-3" points="176.98 193.17 178.2 201.57 171.98 202.47 173.7 214.33 164.25 215.7 162.53 203.85 139.1 207.25 138.27 201.6 150.55 167.02 161.14 165.48 149.52 197.16 161.31 195.45 159.66 184.08 169.11 182.71 170.76 194.07 176.98 193.17"/>
        <path class="cls-3" d="M214.83,186.3l3.14,21.6-9.25,1.34-2.84-19.55c-.29-2.02-1.17-3.58-2.62-4.67s-3.19-1.48-5.21-1.19c-1.32.19-2.45.65-3.4,1.36-.95.71-1.65,1.63-2.09,2.75-.44,1.12-.55,2.36-.36,3.73l2.84,19.55-9.25,1.34-7.41-51.03,9.25-1.34,2.91,20.07c.69-.95,1.51-1.8,2.47-2.55,1.83-1.42,4.05-2.32,6.63-2.69s4.97-.14,7.14.69c2.16.85,3.95,2.17,5.37,3.98,1.41,1.82,2.31,4.01,2.69,6.6Z"/>
      </g>
      <path d="M264.23,147.58l-2.96-19.58c3.13-5,5.03-10.53,5.47-16.41,1.92-26-25.7-49.3-61.56-51.94-35.86-2.64-66.59,16.36-68.51,42.36-1.92,26,25.7,49.31,61.56,51.95,14.88,1.1,28.88-1.54,40.31-6.86l15.59,7.82c.84.42,1.74.67,2.65.74,1.62.12,3.27-.33,4.64-1.33,2.13-1.55,3.21-4.13,2.81-6.74ZM257.82,149.36c-.21.15-.53.28-.94.08l-11.74-5.88-6.48-3.26c-2.28,1.2-4.71,2.28-7.25,3.22-9.58,3.56-20.85,5.21-32.73,4.33-32.49-2.39-57.57-22.76-55.91-45.4,1.67-22.63,29.46-39.1,61.95-36.71,32.49,2.39,57.57,22.75,55.91,45.39-.15,1.98-.49,3.92-1.03,5.8-.97,3.45-2.57,6.71-4.72,9.74l1.21,8.04,2.08,13.79c.07.45-.16.72-.36.87Z"/>
      <path class="cls-4" d="M257.82,149.36c-.21.15-.53.28-.94.08l-11.74-5.88-6.48-3.26c-2.28,1.2-4.71,2.28-7.25,3.22-9.58,3.56-20.85,5.21-32.73,4.33-32.49-2.39-57.57-22.76-55.91-45.4,1.67-22.63,29.46-39.1,61.95-36.71,32.49,2.39,57.57,22.75,55.91,45.39-.15,1.98-.49,3.92-1.03,5.8-.97,3.45-2.57,6.71-4.72,9.74l1.21,8.04,2.08,13.79c.07.45-.16.72-.36.87Z"/>
    </g>
  </g>
</svg>