<?xml version="1.0" encoding="UTF-8"?>
<svg id="Livello_2" data-name="Livello 2" xmlns="http://www.w3.org/2000/svg" viewBox="0 0 294.07 313.97">
  <defs>
    <style>
      .cls-1 {
        fill: #81aee0;
      }

      .cls-2 {
        fill: #204072;
      }
    </style>
  </defs>
  <g id="Livello_1-2" data-name="Livello 1">
    <g>
      <path d="M219.8,299.43c0,2.89-2.35,5.25-5.25,5.25H14.55c-2.9,0-5.25-2.36-5.25-5.25V62.48c0-2.89,2.35-5.25,5.25-5.25h172.66l.51-.71c1.71-2.34,1.71-5.52,0-7.87l-.51-.71H14.55C6.52,47.94,0,54.46,0,62.48v236.95c0,8.02,6.52,14.54,14.54,14.54h200.01c8.03,0,14.54-6.53,14.54-14.54v-161.2l-9.3-4.48v165.68ZM226.78,102.39l-6.98-9.6v28.36l9.3-1.68v-15.04c-.86-.45-1.66-1.12-2.32-2.03Z"/>
      <circle class="cls-1" cx="114.55" cy="207.88" r="68.04"/>
      <path d="M114.55,280.69c-39.93,0-72.42-32.49-72.42-72.42s32.49-72.42,72.42-72.42,72.42,32.49,72.42,72.42-32.49,72.42-72.42,72.42ZM114.55,145.15c-34.8,0-63.12,28.32-63.12,63.12s28.32,63.12,63.12,63.12,63.12-28.32,63.12-63.12-28.32-63.12-63.12-63.12Z"/>
      <path d="M34.88,98.23c-9.13,0-16.55-7.42-16.55-16.55s7.42-16.55,16.55-16.55,16.55,7.42,16.55,16.55-7.42,16.55-16.55,16.55ZM34.88,74.43c-4,0-7.25,3.25-7.25,7.25s3.25,7.25,7.25,7.25,7.25-3.25,7.25-7.25-3.25-7.25-7.25-7.25Z"/>
      <path class="cls-2" d="M267.6,58.96l-24.08,7.82c-2.76.9-4.63,3.47-4.63,6.38v25.3c0,5.37-5.68,8.15-9.8,5.97-.86-.45-1.66-1.12-2.32-2.03l-6.98-9.6-7.91-10.87c-1.08-1.49-2.69-2.43-4.43-2.69-1.01-.15-2.04-.08-3.06.25l-21.04,6.85-3.03.98c-2.3.74-4.45.23-6.06-.98-2.69-2.02-3.82-6.01-1.45-9.3.01-.01.01-.02.02-.03l14.36-19.77.51-.71c1.71-2.34,1.71-5.52,0-7.87l-.51-.71-14.36-19.76c-3.82-5.26,1.32-12.32,7.49-10.31l24.07,7.82c2.77.9,5.78-.09,7.49-2.44l14.88-20.47c3.81-5.25,12.12-2.55,12.12,3.94v25.32c0,2.9,1.87,5.47,4.63,6.36l24.08,7.82c6.17,2.01,6.17,10.74,0,12.75Z"/>
      <path d="M174.28,86.33H61.12c-2.57,0-4.65-2.08-4.65-4.65s2.08-4.65,4.65-4.65h111.7c-2.36,3.28-1.24,7.27,1.45,9.3Z"/>
      <path d="M208.18,81.68c0,2.57-2.09,4.65-4.66,4.65h-20.15l21.04-6.85c1.02-.33,2.06-.4,3.06-.25.45.71.71,1.54.71,2.45Z"/>
      <path d="M158.95,204.72c-2.23,0-4.2-1.61-4.58-3.88-5.58-32.97-33.82-34.87-35.01-34.93-2.56-.14-4.53-2.32-4.4-4.88.13-2.56,2.3-4.55,4.85-4.41.37.02,36.88,2.16,43.74,42.67.43,2.53-1.28,4.93-3.81,5.36-.26.04-.52.07-.78.07Z"/>
      <path d="M224.45,116.53H4.65c-2.57,0-4.65-2.08-4.65-4.65s2.08-4.65,4.65-4.65h219.8c2.57,0,4.65,2.08,4.65,4.65s-2.08,4.65-4.65,4.65Z"/>
      <path class="cls-1" d="M278.81,132.07c-1.57,1.65-1.91,4.13-.83,6.15l9.43,17.55c2.42,4.49-2.34,9.46-6.93,7.24l-17.94-8.65c-2.06-1-4.52-.55-6.1,1.1l-13.78,14.39c-3.53,3.69-9.72.7-9.03-4.36l2.69-19.74c.31-2.26-.87-4.47-2.93-5.46l-4.28-2.07-9.3-4.48-4.37-2.11c-4.6-2.22-3.67-9.03,1.35-9.94l3.03-.55,9.3-1.68,7.28-1.31c2.25-.4,3.98-2.21,4.29-4.47l2.69-19.74c.69-5.06,7.46-6.29,9.87-1.79l9.43,17.55c1.08,2.01,3.34,3.11,5.58,2.7l19.61-3.55c5.03-.91,8.28,5.15,4.75,8.84l-13.78,14.39Z"/>
    </g>
  </g>
</svg>