<?xml version="1.0" encoding="UTF-8"?>
<svg id="Livello_2" data-name="Livello 2" xmlns="http://www.w3.org/2000/svg" viewBox="0 0 322.49 233.48">
  <defs>
    <style>
      .cls-1 {
        fill: #81aee0;
      }

      .cls-2 {
        fill: #204072;
      }
    </style>
  </defs>
  <g id="Livello_1-2" data-name="Livello 1">
    <g>
      <path class="cls-1" d="M251.8,177.45c.92,1.46,1.14,2.83.98,4.09-.24,1.87-1.31,3.5-2.19,4.83-.72,1.1-1.37,2.08-1.53,2.97.59.44,1.26.91,1.97,1.37l-2.02,3.92-.92,1.78-39.3,22.77-66.53,10.35-78.57-21.99-11.97-1.62-32.89,12.29-13.03-1.3v-10.67l20.69-36.58-7.66-29.87s32.12-23.77,89.17-28.56c49.66-4.17,81.26,17.87,93.44,25.69,5.68,3.65,11.6,6.97,18.13,8.67,4.89,1.27,10.75,2.17,17.18,1.87,1.45-.06,2.93-.19,4.44-.39-.3,2.82-.76,6.57-.98,7.26-1.22,3.78-4.84,4.58-7.48,5.17-3.03.67-3,.86-2.87,1.67.23,1.4,2.03,6.67,2.9,8.1.59,0,1.94-.52,2.79-.83,2.7-1.01,6.78-2.54,9.63.68,1.07,1.21,5.68,6.83,6.62,8.33Z"/>
      <path class="cls-1" d="M261.89,169.66l-1.97,3.82c-.13-.09-.27-.18-.4-.28-3.56-2.59-6.39-6.04-8.29-9.71-2.75-5.33-3.93-11.77-2.58-17.96,1.7-.48,3.42-1.07,5.15-1.77-.89,2.32-1.3,4.73-1.3,7.13,0,3.73.97,7.4,2.62,10.59,1.85,3.59,4.18,6.27,6.77,8.18Z"/>
      <path d="M205.15,53.18c1.23.45,2.44.91,3.64,1.4-1.1-.72-2.38-1.13-3.64-1.4ZM205.15,53.18c1.23.45,2.44.91,3.64,1.4-1.1-.72-2.38-1.13-3.64-1.4ZM225.81,56.15c.02-1.97.25-3.97.71-5.93-1.51-.79-3.05-1.56-4.61-2.29-.73,2.69-1.1,5.45-1.13,8.17,0,1.33.06,2.68.22,4.04,1.9.97,3.76,1.99,5.57,3.05-.52-2.15-.79-4.5-.76-7.04ZM205.15,53.18c1.23.45,2.44.91,3.64,1.4-1.1-.72-2.38-1.13-3.64-1.4ZM277.29,100.5c-1.19.7-2.28,1.25-2.99,1.46-.46-.55-1.16-1.71-1.65-2.53-1.64-2.7-3.49-5.77-6.4-6.55-.82-.22-3.16.11-5.87.69,1.01,1.49,1.97,2.99,2.87,4.52.81-.16,1.46-.26,1.87-.29.96.47,2.36,2.8,3.22,4.23,1.41,2.33,2.63,4.35,4.57,4.91,1.63.47,4.07-.49,6.33-1.76-.6-1.57-1.25-3.13-1.95-4.68ZM261.89,169.66c-.76,1.19-1.55,2.37-2.37,3.54,3.08,2.26,6.7,3.89,10.7,4.47.94-1.38,1.82-2.78,2.66-4.2-3.75-.12-7.59-1.29-10.99-3.81ZM258.26,191.84c-.1.22-.22.48-.34.74,2.38-2.39,4.61-4.84,6.68-7.36-3.73.88-5.28,4.3-6.34,6.62ZM250.59,186.37c.88-1.33,1.95-2.96,2.19-4.83-2.51,2.76-5.23,5.42-8.14,7.96-22.84,19.91-57.43,32.64-96.08,32.64-26.83,0-52.67-6.19-74.01-17.59-3.53-1.88-6.93-3.9-10.19-6.06l-2.35-1.55-2.66.93-44.87,15.76c-1.4.3-2.24-.5-2.62-1.01-.39-.54-.93-1.63-.11-2.94l20.92-39.02,1.45-2.71-1.48-2.69c-1.8-3.3-3.32-6.66-4.55-10.07-2.64-7.28-3.97-14.79-3.97-22.43,0-49.28,55.82-89.38,124.44-89.38,16.05,0,31.4,2.2,45.51,6.19,1.65.47,3.28.96,4.9,1.48.14-2.55.95-7.42,1.4-8.75.31-.89.38-1.1,3.8-.16,1.78.49,3.95,1.08,6.09.82-4.39-1.66-8.9-3.14-13.51-4.43-15.19-4.26-31.47-6.49-48.19-6.49-35.95,0-69.81,10.28-95.35,28.93-26.07,19.05-40.43,44.55-40.43,71.79,0,12.14,2.85,23.96,8.48,35.19L2.03,203.84c-2.94,4.86-2.67,10.92.71,15.51,3.42,4.64,9.23,6.68,14.81,5.2l42.94-15.06c24.52,15.49,55.67,23.99,88.07,23.99,35.94,0,69.8-10.27,95.34-28.93,3.29-2.4,6.4-4.91,9.31-7.51,1.19-1.07,2.35-2.15,3.48-3.25-1.76-.58-5.36-2.76-7.63-4.45.16-.89.81-1.87,1.53-2.97ZM284.16,127.69c-3.17-1.51-6.51-2.26-9.89-2.26-.56,0-1.12.02-1.69.07.17,1.44.28,2.88.34,4.34.44-.03.88-.05,1.32-.05,3.29,0,6.52.88,9.56,2.66.18.1.36.21.53.32h0c0-1.71-.06-3.39-.17-5.08ZM282.18,114.7c-2.81-.07-8.45-.4-9.74-.57-.68-.44-1.25-2.71-1.6-4.08-.67-2.68-1.37-5.45-3.76-6.49-.24-.1-.58-.16-1-.17,2.35,4.82,4.13,9.82,5.29,14.97,1.64.22,8.39.77,11.73.7-.26-1.46-.57-2.91-.92-4.36ZM262.78,78.15c-3.64,1.99-7.97,2.97-12.82,2.86,1.57,1.58,3.07,3.2,4.49,4.86,4.74-.5,8.55-1.95,11.58-3.79-1.04-1.33-2.12-2.64-3.25-3.93ZM205.15,53.18c1.23.45,2.44.91,3.64,1.4-1.1-.72-2.38-1.13-3.64-1.4Z"/>
      <path d="M282.18,114.7c-2.81-.07-8.45-.4-9.74-.57-.68-.44-1.25-2.71-1.6-4.08-.67-2.68-1.37-5.45-3.76-6.49-.24-.1-.58-.16-1-.17-.86-1.79-1.81-3.56-2.83-5.3.81-.16,1.46-.26,1.87-.29.96.47,2.36,2.8,3.22,4.23,1.41,2.33,2.63,4.35,4.57,4.91,1.63.47,4.07-.49,6.33-1.76,1.18,3.13,2.17,6.3,2.94,9.52Z"/>
      <path d="M274.7,39.47c-5.82-9.39-16.06-13.98-28.08-12.6-13.99,1.61-21.95,10.8-24.71,21.06-.73,2.69-1.1,5.45-1.13,8.17,0,1.33.06,2.68.22,4.04,1.35,11.53,9.01,23.46,24.18,25.52,1.98.27,3.85.4,5.61.4,1.28,0,2.5-.07,3.66-.19,4.74-.5,8.55-1.95,11.58-3.79,4.17-2.5,6.87-5.74,8.51-8.26,6.46-9.95,6.52-24.08.16-34.35ZM270.32,71.09c-1.96,3.03-4.51,5.39-7.54,7.06-3.64,1.99-7.97,2.97-12.82,2.86-1.33-.02-2.7-.13-4.1-.32-8.39-1.15-16.79-6.94-19.29-17.5-.52-2.15-.79-4.5-.76-7.04.02-1.97.25-3.97.71-5.93,2.07-8.87,8.71-16.98,20.67-18.36,1.24-.14,2.46-.21,3.64-.21,8.49,0,15.37,3.64,19.6,10.47,5.37,8.67,5.33,20.58-.11,28.97ZM274.7,39.47c-5.82-9.39-16.06-13.98-28.08-12.6-13.99,1.61-21.95,10.8-24.71,21.06-.73,2.69-1.1,5.45-1.13,8.17,0,1.33.06,2.68.22,4.04,1.35,11.53,9.01,23.46,24.18,25.52,1.98.27,3.85.4,5.61.4,1.28,0,2.5-.07,3.66-.19,4.74-.5,8.55-1.95,11.58-3.79,4.17-2.5,6.87-5.74,8.51-8.26,6.46-9.95,6.52-24.08.16-34.35ZM270.32,71.09c-1.96,3.03-4.51,5.39-7.54,7.06-3.64,1.99-7.97,2.97-12.82,2.86-1.33-.02-2.7-.13-4.1-.32-8.39-1.15-16.79-6.94-19.29-17.5-.52-2.15-.79-4.5-.76-7.04.02-1.97.25-3.97.71-5.93,2.07-8.87,8.71-16.98,20.67-18.36,1.24-.14,2.46-.21,3.64-.21,8.49,0,15.37,3.64,19.6,10.47,5.37,8.67,5.33,20.58-.11,28.97ZM274.7,39.47c-5.82-9.39-16.06-13.98-28.08-12.6-13.99,1.61-21.95,10.8-24.71,21.06-.73,2.69-1.1,5.45-1.13,8.17,0,1.33.06,2.68.22,4.04,1.35,11.53,9.01,23.46,24.18,25.52,1.98.27,3.85.4,5.61.4,1.28,0,2.5-.07,3.66-.19,4.74-.5,8.55-1.95,11.58-3.79,4.17-2.5,6.87-5.74,8.51-8.26,6.46-9.95,6.52-24.08.16-34.35ZM270.32,71.09c-1.96,3.03-4.51,5.39-7.54,7.06-3.64,1.99-7.97,2.97-12.82,2.86-1.33-.02-2.7-.13-4.1-.32-8.39-1.15-16.79-6.94-19.29-17.5-.52-2.15-.79-4.5-.76-7.04.02-1.97.25-3.97.71-5.93,2.07-8.87,8.71-16.98,20.67-18.36,1.24-.14,2.46-.21,3.64-.21,8.49,0,15.37,3.64,19.6,10.47,5.37,8.67,5.33,20.58-.11,28.97ZM274.7,39.47c-5.82-9.39-16.06-13.98-28.08-12.6-13.99,1.61-21.95,10.8-24.71,21.06-.73,2.69-1.1,5.45-1.13,8.17,0,1.33.06,2.68.22,4.04,1.35,11.53,9.01,23.46,24.18,25.52,1.98.27,3.85.4,5.61.4,1.28,0,2.5-.07,3.66-.19,4.74-.5,8.55-1.95,11.58-3.79,4.17-2.5,6.87-5.74,8.51-8.26,6.46-9.95,6.52-24.08.16-34.35ZM270.32,71.09c-1.96,3.03-4.51,5.39-7.54,7.06-3.64,1.99-7.97,2.97-12.82,2.86-1.33-.02-2.7-.13-4.1-.32-8.39-1.15-16.79-6.94-19.29-17.5-.52-2.15-.79-4.5-.76-7.04.02-1.97.25-3.97.71-5.93,2.07-8.87,8.71-16.98,20.67-18.36,1.24-.14,2.46-.21,3.64-.21,8.49,0,15.37,3.64,19.6,10.47,5.37,8.67,5.33,20.58-.11,28.97ZM274.7,39.47c-5.82-9.39-16.06-13.98-28.08-12.6-13.99,1.61-21.95,10.8-24.71,21.06-.73,2.69-1.1,5.45-1.13,8.17,0,1.33.06,2.68.22,4.04,1.35,11.53,9.01,23.46,24.18,25.52,1.98.27,3.85.4,5.61.4,1.28,0,2.5-.07,3.66-.19,4.74-.5,8.55-1.95,11.58-3.79,4.17-2.5,6.87-5.74,8.51-8.26,6.46-9.95,6.52-24.08.16-34.35ZM270.32,71.09c-1.96,3.03-4.51,5.39-7.54,7.06-3.64,1.99-7.97,2.97-12.82,2.86-1.33-.02-2.7-.13-4.1-.32-8.39-1.15-16.79-6.94-19.29-17.5-.52-2.15-.79-4.5-.76-7.04.02-1.97.25-3.97.71-5.93,2.07-8.87,8.71-16.98,20.67-18.36,1.24-.14,2.46-.21,3.64-.21,8.49,0,15.37,3.64,19.6,10.47,5.37,8.67,5.33,20.58-.11,28.97ZM274.7,39.47c-5.82-9.39-16.06-13.98-28.08-12.6-13.99,1.61-21.95,10.8-24.71,21.06-.73,2.69-1.1,5.45-1.13,8.17,0,1.33.06,2.68.22,4.04,1.35,11.53,9.01,23.46,24.18,25.52,1.98.27,3.85.4,5.61.4,1.28,0,2.5-.07,3.66-.19,4.74-.5,8.55-1.95,11.58-3.79,4.17-2.5,6.87-5.74,8.51-8.26,6.46-9.95,6.52-24.08.16-34.35ZM270.32,71.09c-1.96,3.03-4.51,5.39-7.54,7.06-3.64,1.99-7.97,2.97-12.82,2.86-1.33-.02-2.7-.13-4.1-.32-8.39-1.15-16.79-6.94-19.29-17.5-.52-2.15-.79-4.5-.76-7.04.02-1.97.25-3.97.71-5.93,2.07-8.87,8.71-16.98,20.67-18.36,1.24-.14,2.46-.21,3.64-.21,8.49,0,15.37,3.64,19.6,10.47,5.37,8.67,5.33,20.58-.11,28.97ZM305.9,58.88c-1.22-2.36-4.17-2.85-7.29-3.38-1.69-.28-4.2-.71-4.96-1.4-.69-1.6-2.18-9.34-2.26-11.03-.1-1.91.9-2.64,3.56-4.12,2.49-1.38,6.26-3.46,5.19-8.43-.3-1.41-2.42-4.57-3.66-6.33-3.64-5.15-4.66-5.41-5.41-5.59l-.31-.08h-.31c-2.96.02-5.17,1.75-7.13,3.29-1.42,1.11-2.66,2.08-3.77,2.13-1.83-.91-9.37-5.47-10.81-6.48-.46-.82.18-3.42.57-5,.75-3.07,1.53-6.25-.34-8.59-1.76-2.2-14.09-4.43-16.11-3.74l-.6.2-.43.46c-1.9,2.05-2.37,4.74-2.78,7.12-.55,3.19-.93,4.56-2.53,5.17-.98.33-9.38,2.28-10.88,2.53-1.05-.14-2.41-2.14-3.52-3.76-1.87-2.74-4.7-6.89-9.14-5.05-.73.3-10.48,6.42-11.19,9.21l-.09.36.02.37c.13,2.84,1.88,5.03,3.42,6.95,2.11,2.63,2.61,3.59,1.9,4.88-.47.84-5.25,7.8-6.07,8.79-1.12,1.03-2.82.66-5.47-.06-2.35-.65-6.4-1.76-8.75,1.23-.45.56-.83,1.27-1.13,2.15-.14.38-1.22,5.01-1.55,8.89-.18,2-.15,3.81.32,4.74,1.32,2.62,4.45,3.03,7.21,3.38,3.32.43,4.85.83,5.15,2.05.48,2.01,2.01,9.71,2.12,11.19.11,1.45-.63,2.08-3.42,3.61-2.17,1.19-4.87,2.68-5.9,5.72l-.3.91.37.88c.05.12,5.33,12.1,9.82,13.05,2.41.51,4.41-1.03,6.34-2.52,2.47-1.91,4.13-3.03,6.04-2.31,1.16.68,8.05,5.34,9.14,6.18.84.97.55,2.33-.24,4.93-.75,2.48-1.69,5.58.32,8.16,1.41,1.81,9.92,4.02,14.22,4.02.87,0,1.56-.09,1.99-.29,2.72-1.28,3.25-4.55,3.72-7.44.29-1.76.65-3.93,1.41-4.76,1.35-.68,7.46-2.31,10.87-2.98.81-.16,1.46-.26,1.87-.29.96.47,2.36,2.8,3.22,4.23,1.41,2.33,2.63,4.35,4.57,4.91,1.63.47,4.07-.49,6.33-1.76,3.02-1.68,5.73-3.88,5.77-3.92,2.64-2.17,3.67-3.71,3.53-5.3l-.03-.32-.1-.3c-.7-2.01-1.93-3.61-3.01-5.02-1.59-2.09-2.51-3.39-2.28-5.2.79-1.52,5.16-8.44,6.27-9.93,1-.47,3.34.16,5.07.62,3,.8,6.4,1.7,8.62-.69,1.5-1.63,3.95-14.07,2.82-16.24ZM299.31,71.65c-.76.05-2.48-.41-3.55-.7-2.99-.79-6.72-1.79-9.54.31-1.11.83-7.78,11.41-8.01,12.72-.75,4.22,1.44,7.08,3.2,9.39.71.92,1.38,1.8,1.86,2.72-1.07,1.18-3.71,3.08-5.98,4.41-1.19.7-2.28,1.25-2.99,1.46-.46-.55-1.16-1.71-1.65-2.53-1.64-2.7-3.49-5.77-6.4-6.55-.82-.22-3.16.11-5.87.69-4.55.97-10.12,2.65-11.25,3.66-2.16,1.93-2.67,5.04-3.11,7.79-.1.57-.22,1.33-.36,2.01-.14.68-.3,1.29-.47,1.58-2.06,0-8.55-1.47-10.28-2.34-.22-.67.22-2.13.62-3.43.86-2.85,2.05-6.74-1.02-9.95-.63-.66-9.81-6.87-10.68-7.22-4.79-1.97-8.6.98-11.12,2.93-.69.53-1.7,1.31-2.22,1.52-1.37-1.04-4.23-5.77-5.77-8.99.65-.81,1.83-1.46,3.15-2.19,2.69-1.48,6.38-3.51,6.01-8.39-.15-2.01-1.81-10.18-2.25-11.99-.46-1.9-1.52-3.15-2.84-3.98-1.1-.72-2.38-1.13-3.64-1.4-1.02-.23-2.03-.36-2.91-.47-1.02-.13-2.67-.35-3.28-.65-.02-.26-.01-.61,0-1.01.14-2.55.95-7.42,1.4-8.75.31-.89.38-1.1,3.8-.16,1.78.49,3.95,1.08,6.09.82,1.47-.17,2.93-.76,4.26-2.05.93-.9,6.39-8.96,6.91-9.9,2.46-4.43-.33-7.91-2.37-10.46-.92-1.14-1.8-2.24-2.16-3.25,1.78-1.67,6.94-5.37,8.01-5.86.68-.27,2.05,1.76,3.06,3.24,1.8,2.64,4.04,5.93,7.73,5.97h.01c1.34,0,12.03-2.66,12.57-2.87,4.47-1.7,5.19-5.93,5.72-9.02.25-1.43.49-2.79.99-3.78,2.42.22,8.27,1.51,10.11,2.24.11.84-.39,2.89-.67,4.05-.81,3.28-1.72,7,.63,9.64.44.49,11.91,7.83,13.69,8.02,3.2.33,5.68-1.61,7.67-3.17,1.17-.91,2.28-1.78,3.32-2.09,1.55,1.68,4.99,6.71,5.51,8,.2,1.02-.08,1.42-2.73,2.89-2.55,1.41-6.41,3.55-6.15,8.76.04.88,1.62,11.83,3.3,13.87,1.81,2.2,5.15,2.77,8.1,3.27,1.05.17,2.7.45,3.48.76-.11,2.28-1.26,8.48-1.94,10.43ZM246.62,26.87c-13.99,1.61-21.95,10.8-24.71,21.06-.73,2.69-1.1,5.45-1.13,8.17,0,1.33.06,2.68.22,4.04,1.35,11.53,9.01,23.46,24.18,25.52,1.98.27,3.85.4,5.61.4,1.28,0,2.5-.07,3.66-.19,4.74-.5,8.55-1.95,11.58-3.79,4.17-2.5,6.87-5.74,8.51-8.26,6.46-9.95,6.52-24.08.16-34.35-5.82-9.39-16.06-13.98-28.08-12.6ZM270.32,71.09c-1.96,3.03-4.51,5.39-7.54,7.06-3.64,1.99-7.97,2.97-12.82,2.86-1.33-.02-2.7-.13-4.1-.32-8.39-1.15-16.79-6.94-19.29-17.5-.52-2.15-.79-4.5-.76-7.04.02-1.97.25-3.97.71-5.93,2.07-8.87,8.71-16.98,20.67-18.36,1.24-.14,2.46-.21,3.64-.21,8.49,0,15.37,3.64,19.6,10.47,5.37,8.67,5.33,20.58-.11,28.97ZM274.7,39.47c-5.82-9.39-16.06-13.98-28.08-12.6-13.99,1.61-21.95,10.8-24.71,21.06-.73,2.69-1.1,5.45-1.13,8.17,0,1.33.06,2.68.22,4.04,1.35,11.53,9.01,23.46,24.18,25.52,1.98.27,3.85.4,5.61.4,1.28,0,2.5-.07,3.66-.19,4.74-.5,8.55-1.95,11.58-3.79,4.17-2.5,6.87-5.74,8.51-8.26,6.46-9.95,6.52-24.08.16-34.35ZM270.32,71.09c-1.96,3.03-4.51,5.39-7.54,7.06-3.64,1.99-7.97,2.97-12.82,2.86-1.33-.02-2.7-.13-4.1-.32-8.39-1.15-16.79-6.94-19.29-17.5-.52-2.15-.79-4.5-.76-7.04.02-1.97.25-3.97.71-5.93,2.07-8.87,8.71-16.98,20.67-18.36,1.24-.14,2.46-.21,3.64-.21,8.49,0,15.37,3.64,19.6,10.47,5.37,8.67,5.33,20.58-.11,28.97ZM274.7,39.47c-5.82-9.39-16.06-13.98-28.08-12.6-13.99,1.61-21.95,10.8-24.71,21.06-.73,2.69-1.1,5.45-1.13,8.17,0,1.33.06,2.68.22,4.04,1.35,11.53,9.01,23.46,24.18,25.52,1.98.27,3.85.4,5.61.4,1.28,0,2.5-.07,3.66-.19,4.74-.5,8.55-1.95,11.58-3.79,4.17-2.5,6.87-5.74,8.51-8.26,6.46-9.95,6.52-24.08.16-34.35ZM270.32,71.09c-1.96,3.03-4.51,5.39-7.54,7.06-3.64,1.99-7.97,2.97-12.82,2.86-1.33-.02-2.7-.13-4.1-.32-8.39-1.15-16.79-6.94-19.29-17.5-.52-2.15-.79-4.5-.76-7.04.02-1.97.25-3.97.71-5.93,2.07-8.87,8.71-16.98,20.67-18.36,1.24-.14,2.46-.21,3.64-.21,8.49,0,15.37,3.64,19.6,10.47,5.37,8.67,5.33,20.58-.11,28.97ZM274.7,39.47c-5.82-9.39-16.06-13.98-28.08-12.6-13.99,1.61-21.95,10.8-24.71,21.06-.73,2.69-1.1,5.45-1.13,8.17,0,1.33.06,2.68.22,4.04,1.35,11.53,9.01,23.46,24.18,25.52,1.98.27,3.85.4,5.61.4,1.28,0,2.5-.07,3.66-.19,4.74-.5,8.55-1.95,11.58-3.79,4.17-2.5,6.87-5.74,8.51-8.26,6.46-9.95,6.52-24.08.16-34.35ZM270.32,71.09c-1.96,3.03-4.51,5.39-7.54,7.06-3.64,1.99-7.97,2.97-12.82,2.86-1.33-.02-2.7-.13-4.1-.32-8.39-1.15-16.79-6.94-19.29-17.5-.52-2.15-.79-4.5-.76-7.04.02-1.97.25-3.97.71-5.93,2.07-8.87,8.71-16.98,20.67-18.36,1.24-.14,2.46-.21,3.64-.21,8.49,0,15.37,3.64,19.6,10.47,5.37,8.67,5.33,20.58-.11,28.97ZM274.7,39.47c-5.82-9.39-16.06-13.98-28.08-12.6-13.99,1.61-21.95,10.8-24.71,21.06-.73,2.69-1.1,5.45-1.13,8.17,0,1.33.06,2.68.22,4.04,1.35,11.53,9.01,23.46,24.18,25.52,1.98.27,3.85.4,5.61.4,1.28,0,2.5-.07,3.66-.19,4.74-.5,8.55-1.95,11.58-3.79,4.17-2.5,6.87-5.74,8.51-8.26,6.46-9.95,6.52-24.08.16-34.35ZM270.32,71.09c-1.96,3.03-4.51,5.39-7.54,7.06-3.64,1.99-7.97,2.97-12.82,2.86-1.33-.02-2.7-.13-4.1-.32-8.39-1.15-16.79-6.94-19.29-17.5-.52-2.15-.79-4.5-.76-7.04.02-1.97.25-3.97.71-5.93,2.07-8.87,8.71-16.98,20.67-18.36,1.24-.14,2.46-.21,3.64-.21,8.49,0,15.37,3.64,19.6,10.47,5.37,8.67,5.33,20.58-.11,28.97ZM274.7,39.47c-5.82-9.39-16.06-13.98-28.08-12.6-13.99,1.61-21.95,10.8-24.71,21.06-.73,2.69-1.1,5.45-1.13,8.17,0,1.33.06,2.68.22,4.04,1.35,11.53,9.01,23.46,24.18,25.52,1.98.27,3.85.4,5.61.4,1.28,0,2.5-.07,3.66-.19,4.74-.5,8.55-1.95,11.58-3.79,4.17-2.5,6.87-5.74,8.51-8.26,6.46-9.95,6.52-24.08.16-34.35ZM270.32,71.09c-1.96,3.03-4.51,5.39-7.54,7.06-3.64,1.99-7.97,2.97-12.82,2.86-1.33-.02-2.7-.13-4.1-.32-8.39-1.15-16.79-6.94-19.29-17.5-.52-2.15-.79-4.5-.76-7.04.02-1.97.25-3.97.71-5.93,2.07-8.87,8.71-16.98,20.67-18.36,1.24-.14,2.46-.21,3.64-.21,8.49,0,15.37,3.64,19.6,10.47,5.37,8.67,5.33,20.58-.11,28.97ZM274.7,39.47c-5.82-9.39-16.06-13.98-28.08-12.6-13.99,1.61-21.95,10.8-24.71,21.06-.73,2.69-1.1,5.45-1.13,8.17,0,1.33.06,2.68.22,4.04,1.35,11.53,9.01,23.46,24.18,25.52,1.98.27,3.85.4,5.61.4,1.28,0,2.5-.07,3.66-.19,4.74-.5,8.55-1.95,11.58-3.79,4.17-2.5,6.87-5.74,8.51-8.26,6.46-9.95,6.52-24.08.16-34.35ZM270.32,71.09c-1.96,3.03-4.51,5.39-7.54,7.06-3.64,1.99-7.97,2.97-12.82,2.86-1.33-.02-2.7-.13-4.1-.32-8.39-1.15-16.79-6.94-19.29-17.5-.52-2.15-.79-4.5-.76-7.04.02-1.97.25-3.97.71-5.93,2.07-8.87,8.71-16.98,20.67-18.36,1.24-.14,2.46-.21,3.64-.21,8.49,0,15.37,3.64,19.6,10.47,5.37,8.67,5.33,20.58-.11,28.97Z"/>
      <path class="cls-1" d="M297.77,60.46c-2.95-.5-6.29-1.07-8.1-3.27-1.68-2.04-3.26-12.99-3.3-13.87-.26-5.21,3.6-7.35,6.15-8.76,2.65-1.47,2.93-1.87,2.73-2.89-.52-1.29-3.96-6.32-5.51-8-1.04.31-2.15,1.18-3.32,2.09-1.99,1.56-4.47,3.5-7.67,3.17-1.78-.19-13.25-7.53-13.69-8.02-2.35-2.64-1.44-6.36-.63-9.64.28-1.16.78-3.21.67-4.05-1.84-.73-7.69-2.02-10.11-2.24-.5.99-.74,2.35-.99,3.78-.53,3.09-1.25,7.32-5.72,9.02-.54.21-11.23,2.87-12.57,2.87h-.01c-3.69-.04-5.93-3.33-7.73-5.97-1.01-1.48-2.38-3.51-3.06-3.24-1.07.49-6.23,4.19-8.01,5.86.36,1.01,1.24,2.11,2.16,3.25,2.04,2.55,4.83,6.03,2.37,10.46-.52.94-5.98,9-6.91,9.9-1.33,1.29-2.79,1.88-4.26,2.05-2.14.26-4.31-.33-6.09-.82-3.42-.94-3.49-.73-3.8.16-.45,1.33-1.26,6.2-1.4,8.75-.02.4-.03.75,0,1.01.61.3,2.26.52,3.28.65.88.11,1.89.24,2.91.47,1.26.27,2.54.68,3.64,1.4,1.32.83,2.38,2.08,2.84,3.98.44,1.81,2.1,9.98,2.25,11.99.37,4.88-3.32,6.91-6.01,8.39-1.32.73-2.5,1.38-3.15,2.19,1.54,3.22,4.4,7.95,5.77,8.99.52-.21,1.53-.99,2.22-1.52,2.52-1.95,6.33-4.9,11.12-2.93.87.35,10.05,6.56,10.68,7.22,3.07,3.21,1.88,7.1,1.02,9.95-.4,1.3-.84,2.76-.62,3.43,1.73.87,8.22,2.34,10.28,2.34.17-.29.33-.9.47-1.58.14-.68.26-1.44.36-2.01.44-2.75.95-5.86,3.11-7.79,1.13-1.01,6.7-2.69,11.25-3.66,2.71-.58,5.05-.91,5.87-.69,2.91.78,4.76,3.85,6.4,6.55.49.82,1.19,1.98,1.65,2.53.71-.21,1.8-.76,2.99-1.46,2.27-1.33,4.91-3.23,5.98-4.41-.48-.92-1.15-1.8-1.86-2.72-1.76-2.31-3.95-5.17-3.2-9.39.23-1.31,6.9-11.89,8.01-12.72,2.82-2.1,6.55-1.1,9.54-.31,1.07.29,2.79.75,3.55.7.68-1.95,1.83-8.15,1.94-10.43-.78-.31-2.43-.59-3.48-.76ZM274.54,73.82c-1.64,2.52-4.34,5.76-8.51,8.26-3.03,1.84-6.84,3.29-11.58,3.79-1.16.12-2.38.19-3.66.19-1.76,0-3.63-.13-5.61-.4-15.17-2.06-22.83-13.99-24.18-25.52-.16-1.36-.23-2.71-.22-4.04.03-2.72.4-5.48,1.13-8.17,2.76-10.26,10.72-19.45,24.71-21.06,12.02-1.38,22.26,3.21,28.08,12.6,6.36,10.27,6.3,24.4-.16,34.35Z"/>
      <path d="M286.02,128.67c-.61-.36-1.24-.69-1.86-.98-3.17-1.51-6.51-2.26-9.89-2.26-.56,0-1.12.02-1.69.07-4.5.32-9.06,1.97-13.35,4.91-6.07,4.16-9.36,9.54-10.58,15.12-1.35,6.19-.17,12.63,2.58,17.96,1.9,3.67,4.73,7.12,8.29,9.71.13.1.27.19.4.28,2.99,2.12,6.47,3.63,10.3,4.19,1.07.16,2.17.24,3.29.24,2.73,0,5.61-.49,8.59-1.58,10.62-3.89,16.94-11.39,17.8-21.1.92-10.32-4.79-21.24-13.88-26.56ZM295.54,154.84c-.71,7.93-6.02,14.1-14.95,17.38-2.4.88-5.03,1.33-7.71,1.25-3.75-.12-7.59-1.29-10.99-3.81-2.59-1.91-4.92-4.59-6.77-8.18-1.65-3.19-2.62-6.86-2.62-10.59,0-2.4.41-4.81,1.3-7.13,1.36-3.61,3.9-6.99,7.9-9.73,3.68-2.52,7.48-3.92,11.22-4.19.44-.03.88-.05,1.32-.05,3.29,0,6.52.88,9.56,2.66.18.1.36.21.53.32,7.38,4.61,11.96,13.58,11.21,22.07ZM286.02,128.67c-.61-.36-1.24-.69-1.86-.98-3.17-1.51-6.51-2.26-9.89-2.26-.56,0-1.12.02-1.69.07-4.5.32-9.06,1.97-13.35,4.91-6.07,4.16-9.36,9.54-10.58,15.12-1.35,6.19-.17,12.63,2.58,17.96,1.9,3.67,4.73,7.12,8.29,9.71.13.1.27.19.4.28,2.99,2.12,6.47,3.63,10.3,4.19,1.07.16,2.17.24,3.29.24,2.73,0,5.61-.49,8.59-1.58,10.62-3.89,16.94-11.39,17.8-21.1.92-10.32-4.79-21.24-13.88-26.56ZM295.54,154.84c-.71,7.93-6.02,14.1-14.95,17.38-2.4.88-5.03,1.33-7.71,1.25-3.75-.12-7.59-1.29-10.99-3.81-2.59-1.91-4.92-4.59-6.77-8.18-1.65-3.19-2.62-6.86-2.62-10.59,0-2.4.41-4.81,1.3-7.13,1.36-3.61,3.9-6.99,7.9-9.73,3.68-2.52,7.48-3.92,11.22-4.19.44-.03.88-.05,1.32-.05,3.29,0,6.52.88,9.56,2.66.18.1.36.21.53.32,7.38,4.61,11.96,13.58,11.21,22.07ZM286.02,128.67c-.61-.36-1.24-.69-1.86-.98-3.17-1.51-6.51-2.26-9.89-2.26-.56,0-1.12.02-1.69.07-4.5.32-9.06,1.97-13.35,4.91-6.07,4.16-9.36,9.54-10.58,15.12-1.35,6.19-.17,12.63,2.58,17.96,1.9,3.67,4.73,7.12,8.29,9.71.13.1.27.19.4.28,2.99,2.12,6.47,3.63,10.3,4.19,1.07.16,2.17.24,3.29.24,2.73,0,5.61-.49,8.59-1.58,10.62-3.89,16.94-11.39,17.8-21.1.92-10.32-4.79-21.24-13.88-26.56ZM295.54,154.84c-.71,7.93-6.02,14.1-14.95,17.38-2.4.88-5.03,1.33-7.71,1.25-3.75-.12-7.59-1.29-10.99-3.81-2.59-1.91-4.92-4.59-6.77-8.18-1.65-3.19-2.62-6.86-2.62-10.59,0-2.4.41-4.81,1.3-7.13,1.36-3.61,3.9-6.99,7.9-9.73,3.68-2.52,7.48-3.92,11.22-4.19.44-.03.88-.05,1.32-.05,3.29,0,6.52.88,9.56,2.66.18.1.36.21.53.32,7.38,4.61,11.96,13.58,11.21,22.07ZM286.02,128.67c-.61-.36-1.24-.69-1.86-.98-3.17-1.51-6.51-2.26-9.89-2.26-.56,0-1.12.02-1.69.07-4.5.32-9.06,1.97-13.35,4.91-6.07,4.16-9.36,9.54-10.58,15.12-1.35,6.19-.17,12.63,2.58,17.96,1.9,3.67,4.73,7.12,8.29,9.71.13.1.27.19.4.28,2.99,2.12,6.47,3.63,10.3,4.19,1.07.16,2.17.24,3.29.24,2.73,0,5.61-.49,8.59-1.58,10.62-3.89,16.94-11.39,17.8-21.1.92-10.32-4.79-21.24-13.88-26.56ZM295.54,154.84c-.71,7.93-6.02,14.1-14.95,17.38-2.4.88-5.03,1.33-7.71,1.25-3.75-.12-7.59-1.29-10.99-3.81-2.59-1.91-4.92-4.59-6.77-8.18-1.65-3.19-2.62-6.86-2.62-10.59,0-2.4.41-4.81,1.3-7.13,1.36-3.61,3.9-6.99,7.9-9.73,3.68-2.52,7.48-3.92,11.22-4.19.44-.03.88-.05,1.32-.05,3.29,0,6.52.88,9.56,2.66.18.1.36.21.53.32,7.38,4.61,11.96,13.58,11.21,22.07ZM286.02,128.67c-.61-.36-1.24-.69-1.86-.98-3.17-1.51-6.51-2.26-9.89-2.26-.56,0-1.12.02-1.69.07-4.5.32-9.06,1.97-13.35,4.91-6.07,4.16-9.36,9.54-10.58,15.12-1.35,6.19-.17,12.63,2.58,17.96,1.9,3.67,4.73,7.12,8.29,9.71.13.1.27.19.4.28,2.99,2.12,6.47,3.63,10.3,4.19,1.07.16,2.17.24,3.29.24,2.73,0,5.61-.49,8.59-1.58,10.62-3.89,16.94-11.39,17.8-21.1.92-10.32-4.79-21.24-13.88-26.56ZM295.54,154.84c-.71,7.93-6.02,14.1-14.95,17.38-2.4.88-5.03,1.33-7.71,1.25-3.75-.12-7.59-1.29-10.99-3.81-2.59-1.91-4.92-4.59-6.77-8.18-1.65-3.19-2.62-6.86-2.62-10.59,0-2.4.41-4.81,1.3-7.13,1.36-3.61,3.9-6.99,7.9-9.73,3.68-2.52,7.48-3.92,11.22-4.19.44-.03.88-.05,1.32-.05,3.29,0,6.52.88,9.56,2.66.18.1.36.21.53.32,7.38,4.61,11.96,13.58,11.21,22.07ZM286.02,128.67c-.61-.36-1.24-.69-1.86-.98-3.17-1.51-6.51-2.26-9.89-2.26-.56,0-1.12.02-1.69.07-4.5.32-9.06,1.97-13.35,4.91-6.07,4.16-9.36,9.54-10.58,15.12-1.35,6.19-.17,12.63,2.58,17.96,1.9,3.67,4.73,7.12,8.29,9.71.13.1.27.19.4.28,2.99,2.12,6.47,3.63,10.3,4.19,1.07.16,2.17.24,3.29.24,2.73,0,5.61-.49,8.59-1.58,10.62-3.89,16.94-11.39,17.8-21.1.92-10.32-4.79-21.24-13.88-26.56ZM295.54,154.84c-.71,7.93-6.02,14.1-14.95,17.38-2.4.88-5.03,1.33-7.71,1.25-3.75-.12-7.59-1.29-10.99-3.81-2.59-1.91-4.92-4.59-6.77-8.18-1.65-3.19-2.62-6.86-2.62-10.59,0-2.4.41-4.81,1.3-7.13,1.36-3.61,3.9-6.99,7.9-9.73,3.68-2.52,7.48-3.92,11.22-4.19.44-.03.88-.05,1.32-.05,3.29,0,6.52.88,9.56,2.66.18.1.36.21.53.32,7.38,4.61,11.96,13.58,11.21,22.07ZM286.02,128.67c-.61-.36-1.24-.69-1.86-.98-3.17-1.51-6.51-2.26-9.89-2.26-.56,0-1.12.02-1.69.07-4.5.32-9.06,1.97-13.35,4.91-6.07,4.16-9.36,9.54-10.58,15.12-1.35,6.19-.17,12.63,2.58,17.96,1.9,3.67,4.73,7.12,8.29,9.71.13.1.27.19.4.28,2.99,2.12,6.47,3.63,10.3,4.19,1.07.16,2.17.24,3.29.24,2.73,0,5.61-.49,8.59-1.58,10.62-3.89,16.94-11.39,17.8-21.1.92-10.32-4.79-21.24-13.88-26.56ZM295.54,154.84c-.71,7.93-6.02,14.1-14.95,17.38-2.4.88-5.03,1.33-7.71,1.25-3.75-.12-7.59-1.29-10.99-3.81-2.59-1.91-4.92-4.59-6.77-8.18-1.65-3.19-2.62-6.86-2.62-10.59,0-2.4.41-4.81,1.3-7.13,1.36-3.61,3.9-6.99,7.9-9.73,3.68-2.52,7.48-3.92,11.22-4.19.44-.03.88-.05,1.32-.05,3.29,0,6.52.88,9.56,2.66.18.1.36.21.53.32,7.38,4.61,11.96,13.58,11.21,22.07ZM286.02,128.67c-.61-.36-1.24-.69-1.86-.98-3.17-1.51-6.51-2.26-9.89-2.26-.56,0-1.12.02-1.69.07-4.5.32-9.06,1.97-13.35,4.91-6.07,4.16-9.36,9.54-10.58,15.12-1.35,6.19-.17,12.63,2.58,17.96,1.9,3.67,4.73,7.12,8.29,9.71.13.1.27.19.4.28,2.99,2.12,6.47,3.63,10.3,4.19,1.07.16,2.17.24,3.29.24,2.73,0,5.61-.49,8.59-1.58,10.62-3.89,16.94-11.39,17.8-21.1.92-10.32-4.79-21.24-13.88-26.56ZM295.54,154.84c-.71,7.93-6.02,14.1-14.95,17.38-2.4.88-5.03,1.33-7.71,1.25-3.75-.12-7.59-1.29-10.99-3.81-2.59-1.91-4.92-4.59-6.77-8.18-1.65-3.19-2.62-6.86-2.62-10.59,0-2.4.41-4.81,1.3-7.13,1.36-3.61,3.9-6.99,7.9-9.73,3.68-2.52,7.48-3.92,11.22-4.19.44-.03.88-.05,1.32-.05,3.29,0,6.52.88,9.56,2.66.18.1.36.21.53.32,7.38,4.61,11.96,13.58,11.21,22.07ZM317.99,130.91c-1.9-1.32-4.37-.5-7,.37-1.41.47-3.52,1.17-4.39.94-1.19-.95-5.5-6.31-6.25-7.58-.85-1.43-.38-2.41,1.07-4.63,1.36-2.08,3.41-5.22.56-8.62-.8-.96-3.73-2.53-5.41-3.38-4.9-2.49-5.79-2.27-6.44-2.11l-.27.07-.25.13c-2.27,1.21-3.27,3.46-4.15,5.43-.64,1.44-1.2,2.7-2.04,3.19-.28.01-.71,0-1.24-.02-2.81-.07-8.45-.4-9.74-.57-.68-.44-1.25-2.71-1.6-4.08-.67-2.68-1.37-5.45-3.76-6.49-.24-.1-.58-.16-1-.17-3.41-.11-11.82,2.65-12.95,3.86l-.38.4-.14.53c-.64,2.36.1,4.62.76,6.62.88,2.69,1.14,3.89.15,5.02-.61.65-6.3,5.59-7.35,6.39-.87.32-2.74-.67-4.25-1.46-2.56-1.36-6.43-3.4-9.11-.17-.44.53-5.46,9.23-4.87,11.66l.08.32.17.28c1.26,2.14,3.49,3.11,5.47,3.96,2.7,1.17,3.48,1.71,3.45,2.99-.01.36-.17,1.92-.36,3.67-.27,2.35-.61,5.04-.72,5.53-.41,1.29-1.88,1.71-4.25,2.23-2.47.55-7.06,1.57-6.24,6.65.08.52,2.43,9.45,4.61,11.01,2.09,1.48,4.66.51,6.94-.34,2.73-1.02,4.08-1.34,4.8-.52,1.19,1.35,5.51,6.67,6.21,7.77.67,1.07.36,1.85-1.17,4.17-1,1.52-2.21,3.36-2.29,5.54-.02.42,0,.84.07,1.28l.14.82.65.53s1.51,1.19,3.51,2.5c1.27.83,2.75,1.72,4.2,2.41,1.96.94,3.87,1.52,5.18,1.15,2.07-.59,2.98-2.6,3.86-4.54,1.13-2.48,1.95-4.01,3.72-4.24,1.17.06,8.38.84,9.56,1.04,1.05.4,1.38,1.57,1.83,3.89.44,2.23.97,5,3.58,6.17.31.14.8.21,1.41.21,3.58,0,11.35-2.27,12.61-3.95,1.57-2.1.65-4.84-.17-7.25-.49-1.48-1.1-3.29-.85-4.25.94-1.32,6.89-6.74,8.49-7.72.95-.03,2.96,1.2,4.21,1.95,2.03,1.23,3.79,2.29,5.52,1.92,3.38-.71,6.98-9.23,7.02-9.31,1.15-2.75,1.31-4.36.55-5.53l-.15-.23-.2-.19c-1.36-1.27-2.96-2-4.37-2.65-2.07-.96-3.31-1.59-3.88-3.07-.01-1.5.54-8.62.79-10.22.57-.77,2.63-1.24,4.16-1.59,2.64-.61,5.63-1.3,6.36-4.05.5-1.87-2.69-12.46-4.45-13.67ZM315.1,144.36c-1.32.3-2.8.64-4.11,1.25s-2.46,1.49-3.12,2.87c-.52,1.11-1.34,11.98-.99,13.08,1.14,3.56,4,4.87,6.3,5.93.92.42,1.8.83,2.54,1.34-.52,2.05-3.17,6.87-4.52,8.19-.58-.24-1.59-.85-2.3-1.28-2.37-1.42-5.04-3.03-7.61-2.44-1.94.44-10.69,8.36-11.42,10.34-.88,2.37,0,4.97.77,7.27.33.97.85,2.53.83,3.1-1.58.84-7.19,2.36-8.88,2.4-.44-.43-.7-1.73-.92-2.9-.5-2.55-1.17-6.03-4.85-7.25-.73-.25-9.67-1.22-11.05-1.22h-.13c-.37.04-.71.09-1.04.18-3.73.88-5.28,4.3-6.34,6.62-.1.22-.22.48-.34.74h-.01c-.25.55-.53,1.09-.74,1.34-.14-.02-.3-.07-.48-.13-1.31-.43-3.62-1.74-5.66-3.08-.71-.46-1.38-.93-1.97-1.37.16-.89.81-1.87,1.53-2.97.88-1.33,1.95-2.96,2.19-4.83.16-1.26-.06-2.63-.98-4.09-.94-1.5-5.55-7.12-6.62-8.33-2.85-3.22-6.93-1.69-9.63-.68-.85.31-2.2.82-2.79.83-.87-1.43-2.67-6.7-2.9-8.1-.13-.81-.16-1,2.87-1.67,2.64-.59,6.26-1.39,7.48-5.17.22-.69.68-4.44.98-7.26.17-1.57.29-2.85.3-3.19.09-4.42-3.48-5.97-6.09-7.1-1.18-.51-2.3-1-2.99-1.62.69-2.02,3.16-6.97,3.78-7.79.4-.48,2.3.52,3.69,1.25,2.46,1.3,5.53,2.92,8.39,1.44.91-.46,8.01-6.74,8.53-7.33,2.75-3.14,1.58-6.7.73-9.29-.39-1.21-.76-2.36-.78-3.32,1.96-.82,6.99-2.22,8.71-2.39.43.6.88,2.38,1.13,3.39.72,2.86,1.54,6.1,4.43,7.17.04.02.16.04.35.07,1.64.22,8.39.77,11.73.7.84-.01,1.47-.06,1.74-.17,2.6-1.04,3.72-3.55,4.62-5.57.53-1.18,1.03-2.31,1.7-2.97,1.89.67,6.59,3.14,7.52,3.92.57.71.52,1.13-.93,3.34-1.39,2.14-3.49,5.35-1.17,9.27.57.94,6.15,8.49,8.21,9.35,2.3.96,5.1.03,7.58-.79.88-.29,2.26-.75,2.99-.83.84,1.8,2.49,7.06,2.76,8.83-.56.35-2.08.7-3.02.92ZM286.02,128.67c-.61-.36-1.24-.69-1.86-.98-3.17-1.51-6.51-2.26-9.89-2.26-.56,0-1.12.02-1.69.07-4.5.32-9.06,1.97-13.35,4.91-6.07,4.16-9.36,9.54-10.58,15.12-1.35,6.19-.17,12.63,2.58,17.96,1.9,3.67,4.73,7.12,8.29,9.71.13.1.27.19.4.28,2.99,2.12,6.47,3.63,10.3,4.19,1.07.16,2.17.24,3.29.24,2.73,0,5.61-.49,8.59-1.58,10.62-3.89,16.94-11.39,17.8-21.1.92-10.32-4.79-21.24-13.88-26.56ZM295.54,154.84c-.71,7.93-6.02,14.1-14.95,17.38-2.4.88-5.03,1.33-7.71,1.25-3.75-.12-7.59-1.29-10.99-3.81-2.59-1.91-4.92-4.59-6.77-8.18-1.65-3.19-2.62-6.86-2.62-10.59,0-2.4.41-4.81,1.3-7.13,1.36-3.61,3.9-6.99,7.9-9.73,3.68-2.52,7.48-3.92,11.22-4.19.44-.03.88-.05,1.32-.05,3.29,0,6.52.88,9.56,2.66.18.1.36.21.53.32,7.38,4.61,11.96,13.58,11.21,22.07ZM286.02,128.67c-.61-.36-1.24-.69-1.86-.98-3.17-1.51-6.51-2.26-9.89-2.26-.56,0-1.12.02-1.69.07-4.5.32-9.06,1.97-13.35,4.91-6.07,4.16-9.36,9.54-10.58,15.12-1.35,6.19-.17,12.63,2.58,17.96,1.9,3.67,4.73,7.12,8.29,9.71.13.1.27.19.4.28,2.99,2.12,6.47,3.63,10.3,4.19,1.07.16,2.17.24,3.29.24,2.73,0,5.61-.49,8.59-1.58,10.62-3.89,16.94-11.39,17.8-21.1.92-10.32-4.79-21.24-13.88-26.56ZM295.54,154.84c-.71,7.93-6.02,14.1-14.95,17.38-2.4.88-5.03,1.33-7.71,1.25-3.75-.12-7.59-1.29-10.99-3.81-2.59-1.91-4.92-4.59-6.77-8.18-1.65-3.19-2.62-6.86-2.62-10.59,0-2.4.41-4.81,1.3-7.13,1.36-3.61,3.9-6.99,7.9-9.73,3.68-2.52,7.48-3.92,11.22-4.19.44-.03.88-.05,1.32-.05,3.29,0,6.52.88,9.56,2.66.18.1.36.21.53.32,7.38,4.61,11.96,13.58,11.21,22.07ZM286.02,128.67c-.61-.36-1.24-.69-1.86-.98-3.17-1.51-6.51-2.26-9.89-2.26-.56,0-1.12.02-1.69.07-4.5.32-9.06,1.97-13.35,4.91-6.07,4.16-9.36,9.54-10.58,15.12-1.35,6.19-.17,12.63,2.58,17.96,1.9,3.67,4.73,7.12,8.29,9.71.13.1.27.19.4.28,2.99,2.12,6.47,3.63,10.3,4.19,1.07.16,2.17.24,3.29.24,2.73,0,5.61-.49,8.59-1.58,10.62-3.89,16.94-11.39,17.8-21.1.92-10.32-4.79-21.24-13.88-26.56ZM295.54,154.84c-.71,7.93-6.02,14.1-14.95,17.38-2.4.88-5.03,1.33-7.71,1.25-3.75-.12-7.59-1.29-10.99-3.81-2.59-1.91-4.92-4.59-6.77-8.18-1.65-3.19-2.62-6.86-2.62-10.59,0-2.4.41-4.81,1.3-7.13,1.36-3.61,3.9-6.99,7.9-9.73,3.68-2.52,7.48-3.92,11.22-4.19.44-.03.88-.05,1.32-.05,3.29,0,6.52.88,9.56,2.66.18.1.36.21.53.32,7.38,4.61,11.96,13.58,11.21,22.07ZM286.02,128.67c-.61-.36-1.24-.69-1.86-.98-3.17-1.51-6.51-2.26-9.89-2.26-.56,0-1.12.02-1.69.07-4.5.32-9.06,1.97-13.35,4.91-6.07,4.16-9.36,9.54-10.58,15.12-1.35,6.19-.17,12.63,2.58,17.96,1.9,3.67,4.73,7.12,8.29,9.71.13.1.27.19.4.28,2.99,2.12,6.47,3.63,10.3,4.19,1.07.16,2.17.24,3.29.24,2.73,0,5.61-.49,8.59-1.58,10.62-3.89,16.94-11.39,17.8-21.1.92-10.32-4.79-21.24-13.88-26.56ZM295.54,154.84c-.71,7.93-6.02,14.1-14.95,17.38-2.4.88-5.03,1.33-7.71,1.25-3.75-.12-7.59-1.29-10.99-3.81-2.59-1.91-4.92-4.59-6.77-8.18-1.65-3.19-2.62-6.86-2.62-10.59,0-2.4.41-4.81,1.3-7.13,1.36-3.61,3.9-6.99,7.9-9.73,3.68-2.52,7.48-3.92,11.22-4.19.44-.03.88-.05,1.32-.05,3.29,0,6.52.88,9.56,2.66.18.1.36.21.53.32,7.38,4.61,11.96,13.58,11.21,22.07ZM286.02,128.67c-.61-.36-1.24-.69-1.86-.98-3.17-1.51-6.51-2.26-9.89-2.26-.56,0-1.12.02-1.69.07-4.5.32-9.06,1.97-13.35,4.91-6.07,4.16-9.36,9.54-10.58,15.12-1.35,6.19-.17,12.63,2.58,17.96,1.9,3.67,4.73,7.12,8.29,9.71.13.1.27.19.4.28,2.99,2.12,6.47,3.63,10.3,4.19,1.07.16,2.17.24,3.29.24,2.73,0,5.61-.49,8.59-1.58,10.62-3.89,16.94-11.39,17.8-21.1.92-10.32-4.79-21.24-13.88-26.56ZM295.54,154.84c-.71,7.93-6.02,14.1-14.95,17.38-2.4.88-5.03,1.33-7.71,1.25-3.75-.12-7.59-1.29-10.99-3.81-2.59-1.91-4.92-4.59-6.77-8.18-1.65-3.19-2.62-6.86-2.62-10.59,0-2.4.41-4.81,1.3-7.13,1.36-3.61,3.9-6.99,7.9-9.73,3.68-2.52,7.48-3.92,11.22-4.19.44-.03.88-.05,1.32-.05,3.29,0,6.52.88,9.56,2.66.18.1.36.21.53.32,7.38,4.61,11.96,13.58,11.21,22.07ZM286.02,128.67c-.61-.36-1.24-.69-1.86-.98-3.17-1.51-6.51-2.26-9.89-2.26-.56,0-1.12.02-1.69.07-4.5.32-9.06,1.97-13.35,4.91-6.07,4.16-9.36,9.54-10.58,15.12-1.35,6.19-.17,12.63,2.58,17.96,1.9,3.67,4.73,7.12,8.29,9.71.13.1.27.19.4.28,2.99,2.12,6.47,3.63,10.3,4.19,1.07.16,2.17.24,3.29.24,2.73,0,5.61-.49,8.59-1.58,10.62-3.89,16.94-11.39,17.8-21.1.92-10.32-4.79-21.24-13.88-26.56ZM295.54,154.84c-.71,7.93-6.02,14.1-14.95,17.38-2.4.88-5.03,1.33-7.71,1.25-3.75-.12-7.59-1.29-10.99-3.81-2.59-1.91-4.92-4.59-6.77-8.18-1.65-3.19-2.62-6.86-2.62-10.59,0-2.4.41-4.81,1.3-7.13,1.36-3.61,3.9-6.99,7.9-9.73,3.68-2.52,7.48-3.92,11.22-4.19.44-.03.88-.05,1.32-.05,3.29,0,6.52.88,9.56,2.66.18.1.36.21.53.32,7.38,4.61,11.96,13.58,11.21,22.07ZM286.02,128.67c-.61-.36-1.24-.69-1.86-.98-3.17-1.51-6.51-2.26-9.89-2.26-.56,0-1.12.02-1.69.07-4.5.32-9.06,1.97-13.35,4.91-6.07,4.16-9.36,9.54-10.58,15.12-1.35,6.19-.17,12.63,2.58,17.96,1.9,3.67,4.73,7.12,8.29,9.71.13.1.27.19.4.28,2.99,2.12,6.47,3.63,10.3,4.19,1.07.16,2.17.24,3.29.24,2.73,0,5.61-.49,8.59-1.58,10.62-3.89,16.94-11.39,17.8-21.1.92-10.32-4.79-21.24-13.88-26.56ZM295.54,154.84c-.71,7.93-6.02,14.1-14.95,17.38-2.4.88-5.03,1.33-7.71,1.25-3.75-.12-7.59-1.29-10.99-3.81-2.59-1.91-4.92-4.59-6.77-8.18-1.65-3.19-2.62-6.86-2.62-10.59,0-2.4.41-4.81,1.3-7.13,1.36-3.61,3.9-6.99,7.9-9.73,3.68-2.52,7.48-3.92,11.22-4.19.44-.03.88-.05,1.32-.05,3.29,0,6.52.88,9.56,2.66.18.1.36.21.53.32,7.38,4.61,11.96,13.58,11.21,22.07Z"/>
      <path class="cls-2" d="M306.88,161.56c-.35-1.1.47-11.97.99-13.08.66-1.38,1.81-2.26,3.12-2.87s2.79-.95,4.11-1.25c.94-.22,2.46-.57,3.02-.92-.27-1.77-1.92-7.03-2.76-8.83-.73.08-2.11.54-2.99.83-2.48.82-5.28,1.75-7.58.79-2.06-.86-7.64-8.41-8.21-9.35-2.32-3.92-.22-7.13,1.17-9.27,1.45-2.21,1.5-2.63.93-3.34-.93-.78-5.63-3.25-7.52-3.92-.67.66-1.17,1.79-1.7,2.97-.9,2.02-2.02,4.53-4.62,5.57-.27.11-.9.16-1.74.17-3.34.07-10.09-.48-11.73-.7-.19-.03-.31-.05-.35-.07-2.89-1.07-3.71-4.31-4.43-7.17-.25-1.01-.7-2.79-1.13-3.39-1.72.17-6.75,1.57-8.71,2.39.02.96.39,2.11.78,3.32.85,2.59,2.02,6.15-.73,9.29-.52.59-7.62,6.87-8.53,7.33-2.86,1.48-5.93-.14-8.39-1.44-1.39-.73-3.29-1.73-3.69-1.25-.62.82-3.09,5.77-3.78,7.79.69.62,1.81,1.11,2.99,1.62,2.61,1.13,6.18,2.68,6.09,7.1-.01.34-.13,1.62-.3,3.19-.3,2.82-.76,6.57-.98,7.26-1.22,3.78-4.84,4.58-7.48,5.17-3.03.67-3,.86-2.87,1.67.23,1.4,2.03,6.67,2.9,8.1.59,0,1.94-.52,2.79-.83,2.7-1.01,6.78-2.54,9.63.68,1.07,1.21,5.68,6.83,6.62,8.33.92,1.46,1.14,2.83.98,4.09-.24,1.87-1.31,3.5-2.19,4.83-.72,1.1-1.37,2.08-1.53,2.97.59.44,1.26.91,1.97,1.37,2.04,1.34,4.35,2.65,5.66,3.08.18.06.34.11.48.13.21-.25.49-.79.74-1.33h.01c.12-.27.24-.53.34-.75,1.06-2.32,2.61-5.74,6.34-6.62.33-.09.67-.14,1.04-.18h.13c1.38,0,10.32.97,11.05,1.22,3.68,1.22,4.35,4.7,4.85,7.25.22,1.17.48,2.47.92,2.9,1.69-.04,7.3-1.56,8.88-2.4.02-.57-.5-2.13-.83-3.1-.77-2.3-1.65-4.9-.77-7.27.73-1.98,9.48-9.9,11.42-10.34,2.57-.59,5.24,1.02,7.61,2.44.71.43,1.72,1.04,2.3,1.28,1.35-1.32,4-6.14,4.52-8.19-.74-.51-1.62-.92-2.54-1.34-2.3-1.06-5.16-2.37-6.3-5.93ZM299.9,155.23c-.86,9.71-7.18,17.21-17.8,21.1-2.98,1.09-5.86,1.58-8.59,1.58-1.12,0-2.22-.08-3.29-.24-3.83-.56-7.31-2.07-10.3-4.19-.13-.09-.27-.18-.4-.28-3.56-2.59-6.39-6.04-8.29-9.71-2.75-5.33-3.93-11.77-2.58-17.96,1.22-5.58,4.51-10.96,10.58-15.12,4.29-2.94,8.85-4.59,13.35-4.91.57-.05,1.13-.07,1.69-.07,3.38,0,6.72.75,9.89,2.26.62.29,1.25.62,1.86.98,9.09,5.32,14.8,16.24,13.88,26.56Z"/>
    </g>
  </g>
</svg>