<svg width="25" height="34" viewBox="0 0 25 34" fill="none" xmlns="http://www.w3.org/2000/svg">
<path d="M0.00650862 12.2754C0.00650862 5.49336 5.60401 0 12.5033 0C19.4025 0 25 5.49336 25 12.2754C25 20.0404 17.1765 29.3478 13.9091 32.8951C13.1411 33.7282 11.8589 33.7282 11.0909 32.8951C7.82348 29.3478 0 20.0404 0 12.2754H0.00650862ZM12.5033 16.6623C14.8008 16.6623 16.6688 14.7943 16.6688 12.4967C16.6688 10.1992 14.8008 8.33116 12.5033 8.33116C10.2057 8.33116 8.33767 10.1992 8.33767 12.4967C8.33767 14.7943 10.2057 16.6623 12.5033 16.6623Z" fill="#204072"/>
</svg>
