<?xml version="1.0" encoding="UTF-8"?>
<svg id="Livello_2" data-name="Livello 2" xmlns="http://www.w3.org/2000/svg" viewBox="0 0 349.7 349.86">
  <defs>
    <style>
      .cls-1 {
        fill: #fff;
      }

      .cls-2 {
        fill: #81aee0;
      }
    </style>
  </defs>
  <g id="SI.MA">
    <g>
      <g>
        <path class="cls-1" d="M179.06,349.8c-2.81.08-5.83.08-8.63,0C72.84,347.04-3.75,265.66.14,167.91,4.19,66.05,93.72-10.45,195.22,1.17c75.96,8.7,138.16,67.23,151.65,142.36,19.05,106.11-60.6,203.24-167.81,206.27ZM171.34,6.48C70.53,8.84-5.36,97.47,7.85,197.62c10.3,78.12,75.26,139.23,153.82,145.23,106.61,8.14,193.59-83.38,180.2-189.52C331.44,70.62,260.84,7.86,177.51,6.4l-6.18.08Z"/>
        <path class="cls-1" d="M100.07,125.51c1.44-1.52,3.28-4.93,4.78-6.85,26.76-34.16,77.29-42.4,114.66-20.93,55.27,31.75,60.68,109.55,10.26,148.7-42.4,32.92-104.41,20.79-131.77-24.82l-23.03-15.58-.24-.48.05-61.1,25.29-18.95ZM169.66,97.37c-47.44,2.7-81.2,49.29-70.39,95.42,14.82,63.27,97.03,81.79,137.21,30.38s.63-129.63-66.82-125.8Z"/>
        <path class="cls-1" d="M168.03,33.27l-1.5,3.89c-.71,2.61-1.56,5.19-2.27,7.81-.96,3.6-1.92,10.54-3.3,13.48-1.67,3.55-7.67,4.11-10.32,1.2-2.95-3.25-6.03-8.72-8.9-12.45-2.09-2.72-4.25-5.41-6.57-7.94,1.73,7.08,4.74,13.87,6.54,20.92.19.74.45,1.43.44,2.22-.08,3.44-6.15,5.47-8.18,2.4l-10.45-26.25c-.38-1.3.42-2.21,1.33-3.01,2.13-1.84,11.3-4.8,14.01-4.41s4.89,4.91,6.71,6.72l8.78,12.44c.92-4.6,1.94-9.2,3.19-13.72.61-2.21,1.25-4.95,2.08-7.03.71-1.75,1.2-2.54,3.12-3.12,2.97-.89,11.79-1.47,14.41,0,1.18.66,1.33,1.61,1.44,2.88.74,8.66-.57,18.34,0,27.11-.48,4.02-8.48,4.09-8.77-.35l-1.79-22.79Z"/>
        <path class="cls-1" d="M57.89,90.88c5.79-.79,4.7,4.61,2.18,7.69-2.26,2.76-5.61,2.13-8.52,3.95-3.87,2.43-9.64,13.64-7.56,17.96,1.58,3.29,5.41-1.54,6.52-2.94,4.67-5.89,10.3-16.24,17.52-19.17,6.73-2.73,10.65,2.51,10.32,8.88-.44,8.53-10.83,28.54-19.2,31.64-5.32,1.97-6.39-1.76-4.67-6.11s5.84-3.22,9.1-5.76,7.02-9.67,7.49-13.61c.61-5.09-2.1-7.32-6.29-3.9-6.21,5.07-13.04,21.28-19.79,23.62s-8.24-5.07-7.92-10.08c.6-9.44,10.32-30.74,20.82-32.18Z"/>
        <path class="cls-1" d="M259.12,50.36c10.14-.69,28.92,13.99,29.32,24.51.3,7.87-8.51,3.51-9.1-1.46-.24-2.08.12-3.67-.63-5.84-1.42-4.07-9.24-10.11-13.63-9.99s-2.31,3.68-.84,5.74c4.48,6.3,11.32,10.81,14.29,18.56s-1.75,12.6-9.55,10.98-21.34-12.44-23.91-19.73c-1.38-3.91-1.63-9.65,4.25-7.61,4.98,1.73,2.86,6.03,4.04,9.63s7.63,8.71,11.37,9.73c5.63,1.53,6.68-2.38,4.03-6.67-3.68-5.96-14.76-13.75-15.97-20.25-.82-4.41,2.05-7.33,6.32-7.62Z"/>
        <path class="cls-1" d="M188.02,49.18c1.73-1.76,5.09-2.54,7.47-2.72,5.76-.43,11.84.55,17.63.48,1.3-6.13-8.45-7-12.48-6.37s-4.08,4.17-8.86,2.89c-3.47-.93-3.53-3.4-.84-5.4,5.99-4.44,24.68-1.5,29.83,3.74,4.84,4.92-.48,10.73-1.15,15.82-.33,2.52,1.23,6.34-2.08,6.79-4.14.57-5.31-1.87-7.16-4.95-6.24,2.03-18,2.32-22.44-3.3-1.7-2.15-1.9-4.96.09-6.99ZM198.91,50.35c-2.79.43-4.35,2.83-1.98,4.98,2.56,2.31,9.51,2.5,12.34.59,1.6-1.08,2.35-3.24,2.85-5.03-.1-.61-3.64-.3-4.41-.34-2.67-.13-6.16-.6-8.81-.19Z"/>
        <path class="cls-1" d="M161.31,302.56c-.68,6.46,4.86,14.98,11.16,8.16,1.22-1.33,3.12-5.71,5.4-3.49,1.92,1.86-.03,6.39-1.45,8.16-5,6.2-13.94,4.82-18.18-1.48-6.19-9.2-5.14-34.25,10.32-32.38,4.82.58,8.03,5,9.36,9.34.82,2.66,2.07,9.74-.85,11.26s-15.2-.13-15.76.43ZM172.83,297.52c-.22-3.07-1.05-8.48-4.6-9.43-5.12-1.36-7.04,5.29-6.91,9.19l11.51.24Z"/>
        <path class="cls-1" d="M190.1,287.21l2.16-3.23c5.19-5.82,12.25-3.35,13.98,3.99,1.72,7.28.24,16.53,1.13,24.07-.34,6.43-5.94,7.67-6.5.24-.44-5.9.78-16.54-1.08-21.7-1.68-4.67-6.36-2.58-7.99,1.11-2.32,5.25-.42,16.05-.74,22.04-.13,2.43-1.63,7.3-4.89,4.87-2.35-1.75-1.51-8.81-1.58-11.6-.17-6.65-.51-13.48-.51-20.13,0-1.88.57-5.6,3.02-5.6,2.6,0,3.22,3.97,3,5.96Z"/>
        <path class="cls-1" d="M219.6,306.64l12.85-3.1c3.14-.1,2.7,5.01-.14,6.34-3.01,1.41-13.84,4.21-17.21,4.61-4.02.47-4.46-2.37-3.46-5.62l12.76-23.33c-.74-.54-10.88,2.17-12.55.73l-.24-.32c-.79-2.09-.53-4.76,1.93-5.39,4.97-.16,10.41-1.57,15.29-1.74,2.58-.09,3.94.95,3.65,3.65-2.93,6.9-7.2,13.29-10.77,19.93-.25.46-2.29,4.07-2.12,4.24Z"/>
        <path class="cls-1" d="M102.79,272.35v9.59l11.99,2.28c2.45.98,2.92,5.91-.16,6.03l-11.84-2.79v13.07c0,.25-.58,2-.79,2.21-1.91,1.9-5.66-2.04-5.63-4.19-.18-8.29.02-16.59-.05-24.89,0-.92-.3-1.79-.26-2.88.2-4.88,2.22-4.55,6.36-4.42,4.84.15,9.73.79,14.57,1.02,3.22.7,3.08,6.33-.43,6.43l-13.78-1.45Z"/>
        <path class="cls-1" d="M256.68,277.71c1.72,1.72,2.78,5.03,2.46,7.45s-2.36,3.53-4.48,4.39c-3.68,1.51-7.86,2.46-11.65,3.7-.9.54-.15,2.93.2,3.8,1.83,4.49,6.01,3.2,8.76.37,1.34-1.38,2.85-4.47,3.95-5.41,1.31-1.12,3.16-1.09,3.02,1.08-.23,3.33-4.58,7.99-7.27,9.77-16.33,10.85-19.27-14.92-11.21-23.68,3.84-4.17,11.95-5.75,16.23-1.47ZM253.41,286.25c-.11-3.47-1.79-6.72-5.77-5.88-3.83.81-5.06,5.38-5.26,8.77l11.03-2.88Z"/>
        <path class="cls-1" d="M319.31,118.68c4.06-.57,7.81,9.55,4.36,11.81l-26.55,9.19c-4.31,1.24-7.35-6.74-4.46-9.26.88-.77,3.94-1.91,5.2-2.48,7.08-3.22,14.3-6.2,21.45-9.26Z"/>
        <path class="cls-1" d="M292.68,90.64c4.09-.86,8.91,6.16,5.11,9.18,0,.18,2.84,1.06,3.28,1.28,3.7,1.82,6.07,6.57,7.1,10.41.53,2,1.7,6.81-1.99,5.82-4.18-1.12-3.58-11.32-9.35-13.19-4.77-1.55-9.96,4.15-13.84,6.06-4.2,2.07-8.32-3.5-6.19-7.15,4.65-3.53,9.28-8.1,14.06-11.36.49-.34,1.27-.93,1.83-1.04Z"/>
        <path class="cls-1" d="M142.13,285.77c1.34-1.49,1.64-3.75,3.67-4.6,4.15-1.74,9.6,3.29,7.09,7.56-1.78,3.03-4.02-.41-6.3-.31-2.44.11-3.32,3.25-3.67,5.2-1.11,6.25-.07,12.86-.81,19.09-.67,5.69-6.42,2.77-6.21-1.66.59-8.43-.46-17.82.24-26.13.62-7.36,6.63-5.33,5.99.84Z"/>
        <path class="cls-1" d="M77.31,76.01c2.19-.33,2.69,1.04,3.89,2.23,3.98,3.94,7.81,8.01,11.72,12.02,2.56,3.43-2.5,8.9-6.18,6.89-4.05-3.83-8.78-7.36-12.73-11.25-1.74-1.71-2.99-2.47-2.03-5.15.65-1.82,3.38-4.46,5.33-4.75Z"/>
        <path class="cls-1" d="M124.46,279.86c1.64-1.55,3.94-.35,4.67,1.53.98,2.54.31,4.67.28,7.13-.08,6.85.52,14.64-.23,21.35-.53,4.71-5.05,3.27-5.94-.78-.29-1.35-.03-2.35-.05-3.53-.07-6.17-.03-12.33.24-18.46.09-1.99-.5-5.8,1.03-7.24Z"/>
        <path class="cls-1" d="M65.45,78.28c-1.57-1.57.59-5.26,1.84-6.54,1.51-1.54,6.01-4.13,6.68-.65.6,3.15-5.96,9.75-8.52,7.19Z"/>
        <path class="cls-1" d="M105.37,76.01c1.17-.19,2.75-.13,3.54.91,2.78,3.67-5.3,9.61-8.03,6.11-2.09-2.67,1.76-6.58,4.5-7.02Z"/>
        <path class="cls-1" d="M128.61,274.66c-.24.23-.69.49-1.01.55-5.46.93-5.31-8.55-.49-7.89,2.94.41,3.33,5.57,1.5,7.34Z"/>
      </g>
      <path class="cls-2" d="M99.1,192.83s11.15,11.4,36.61,12.12c25.46.73,48.17-8.74,48.17-8.74,0,0,27.72-11.98,45.83-9.61,18.11,2.37,20.89,7.94,20.89,7.94,0,0-11,49.17-64.91,57.39s-83.6-37.72-86.6-59.1Z"/>
    </g>
  </g>
</svg>