<svg width="19" height="18" viewBox="0 0 19 18" fill="none" xmlns="http://www.w3.org/2000/svg">
<path d="M9.8783 0.436331C9.74174 0.169869 9.46529 0 9.16552 0C8.86575 0 8.58929 0.169869 8.45273 0.436331L6.00128 5.23931L0.675373 6.08532C0.378934 6.13195 0.132457 6.34179 0.0391955 6.62824C-0.0540661 6.91469 0.0225418 7.22778 0.23238 7.44095L4.04279 11.2547L3.20343 16.5806C3.1568 16.877 3.28004 17.1768 3.52318 17.3533C3.76633 17.5299 4.08609 17.5565 4.35588 17.4199L9.16552 14.9752L13.9718 17.4199C14.2383 17.5565 14.5614 17.5299 14.8045 17.3533C15.0477 17.1768 15.1709 16.8804 15.1243 16.5806L14.2816 11.2547L18.092 7.44095C18.3052 7.22778 18.3784 6.91469 18.2852 6.62824C18.1919 6.34179 17.9488 6.13195 17.649 6.08532L12.3264 5.23931L9.8783 0.436331Z" fill="#FFD500"/>
</svg>
